<?xml version="1.0" standalone="no"?>
<!DOCTYPE svg PUBLIC "-//W3C//DTD SVG 20010904//EN"
 "http://www.w3.org/TR/2001/REC-SVG-20010904/DTD/svg10.dtd">
<svg version="1.0" xmlns="http://www.w3.org/2000/svg"
 width="400.000000pt" height="400.000000pt" viewBox="0 0 400.000000 400.000000"
 preserveAspectRatio="xMidYMid meet">

<g transform="translate(0.000000,400.000000) scale(0.100000,-0.100000)"
fill="#000000" stroke="none">
<path d="M1889 3310 c-63 -30 -132 -63 -154 -72 -22 -9 -78 -33 -125 -53 -176
-75 -515 -196 -628 -225 l-43 -11 7 -442 c3 -243 7 -448 10 -454 2 -7 19 -13
38 -13 l35 0 -2 427 -2 426 180 62 c212 72 281 98 353 131 29 13 55 24 58 24
11 0 292 124 336 148 l46 26 99 -46 c230 -109 449 -197 718 -288 l170 -58 -4
-426 -4 -426 35 0 35 0 6 78 c7 76 11 822 5 827 -2 2 -75 27 -163 55 -263 87
-601 221 -786 313 l-106 53 -114 -56z"/>
<path d="M1985 3191 c-12 -11 -148 -72 -320 -143 -195 -81 -262 -107 -414
-158 -79 -27 -148 -53 -152 -57 -4 -4 -5 -185 -2 -400 l6 -393 189 0 188 0 0
38 c0 46 33 93 51 75 7 -7 13 -35 13 -63 l0 -50 74 0 74 0 -32 37 c-18 20 -48
70 -68 110 -76 160 -48 354 71 489 82 93 189 143 322 151 77 4 101 1 168 -20
94 -30 173 -88 234 -171 61 -83 76 -142 71 -285 -3 -103 -7 -122 -32 -171 -15
-30 -43 -74 -63 -97 l-34 -43 65 0 66 0 0 48 c0 44 12 72 32 72 13 0 38 -58
38 -90 l0 -30 183 0 184 0 6 173 c4 94 7 274 7 398 l0 226 -97 33 c-109 36
-294 105 -393 145 -165 68 -310 130 -362 156 -66 33 -61 32 -73 20z m35 -126
c7 -19 17 -25 41 -25 l32 0 -22 -24 c-18 -20 -22 -31 -16 -56 l7 -32 -31 18
c-24 14 -33 16 -43 6 -23 -23 -40 -14 -33 17 5 24 2 32 -14 41 -30 15 -26 30
8 30 22 0 30 6 35 25 4 14 11 25 16 25 6 0 15 -11 20 -25z m-300 -149 c0 -19
-27 -46 -46 -46 -24 0 -29 31 -9 46 25 18 55 18 55 0z m624 1 c19 -14 13 -47
-9 -47 -21 0 -59 36 -51 48 9 16 38 15 60 -1z m101 -37 c14 -43 -29 -57 -45
-15 -13 35 -3 57 20 45 10 -6 21 -19 25 -30z m-835 11 c0 -46 -25 -66 -48 -38
-9 10 -7 19 4 35 19 27 44 29 44 3z m-78 -73 c0 -13 1 -31 0 -40 -1 -14 6 -18
28 -18 36 0 49 -19 25 -37 -25 -18 -55 -17 -55 2 0 9 -11 21 -25 27 -27 12
-32 37 -13 68 17 27 38 25 40 -2z m138 7 c0 -16 -30 -35 -54 -35 -10 0 -16 9
-16 25 0 22 4 25 35 25 24 0 35 -5 35 -15z m740 -4 c0 -26 -15 -34 -46 -27
-15 4 -24 14 -24 26 0 16 7 20 35 20 28 0 35 -4 35 -19z m104 -3 c23 -33 20
-57 -9 -64 -14 -3 -25 -12 -25 -19 0 -20 -18 -28 -46 -21 -15 4 -24 14 -24 26
0 16 7 20 35 20 26 0 33 3 29 15 -8 19 4 65 16 65 5 0 16 -10 24 -22z m-1054
-88 c7 -16 10 -36 7 -43 -4 -11 4 -14 31 -13 31 1 37 -2 37 -19 0 -13 -10 -23
-29 -30 -25 -8 -31 -7 -44 13 -8 12 -22 22 -32 22 -24 0 -30 30 -14 69 16 39
28 39 44 1z m1130 11 c19 -36 12 -71 -15 -81 -14 -5 -28 -17 -31 -25 -8 -21
-48 -19 -68 4 -24 27 -11 44 30 39 30 -4 34 -1 34 20 0 27 17 62 30 62 5 0 14
-9 20 -19z m-1184 -145 c13 -22 24 -33 28 -27 4 6 23 11 42 11 42 0 45 -20 8
-49 -32 -25 -50 -27 -58 -6 -3 9 -18 15 -35 15 -25 0 -31 6 -40 33 -24 72 18
89 55 23z m1254 13 c0 -46 -16 -69 -49 -69 -16 0 -31 -7 -35 -15 -7 -20 -28
-19 -54 4 -32 27 -28 51 7 51 17 0 33 -4 36 -10 9 -15 25 -12 25 4 0 20 39 66
56 66 9 0 14 -11 14 -31z m-1299 -139 c24 -24 34 -28 49 -20 22 12 80 13 80 2
0 -13 -30 -52 -50 -62 -13 -7 -26 -6 -46 5 -22 11 -30 12 -36 2 -12 -18 -58
42 -58 76 0 36 23 35 61 -3z m1345 16 c13 -35 -48 -114 -66 -86 -7 12 -40 3
-40 -11 0 -5 -6 -9 -14 -9 -17 0 -66 49 -66 66 0 17 61 19 77 3 9 -9 20 -4 43
20 34 33 57 39 66 17z m-1352 -153 l25 -25 32 26 c34 29 69 34 69 10 0 -20
-19 -56 -39 -71 -19 -15 -45 -17 -36 -3 9 15 -18 12 -41 -5 -18 -12 -24 -12
-41 0 -24 17 -47 69 -40 89 8 20 40 10 71 -21z m1244 0 l27 -28 27 28 c14 15
36 27 47 27 33 0 28 -50 -8 -84 -28 -26 -31 -27 -46 -12 -20 19 -42 21 -48 4
-7 -19 -38 2 -60 40 -33 56 13 74 61 25z m-1110 -112 c4 -39 -23 -85 -45 -77
-18 7 -56 -17 -45 -29 4 -4 -9 -5 -28 -1 -37 7 -69 39 -70 69 0 24 50 22 84
-4 26 -20 26 -20 26 0 0 24 48 83 64 78 6 -2 12 -18 14 -36z m1081 4 c17 -20
31 -40 31 -46 0 -6 10 -3 22 5 12 9 37 16 55 16 44 0 44 -29 2 -64 -38 -33
-52 -33 -85 0 -21 22 -28 24 -35 13 -8 -11 -12 -10 -22 6 -18 30 -26 62 -20
85 7 28 16 25 52 -15z"/>
<path d="M1960 2742 c0 -18 -5 -42 -10 -53 -17 -30 6 -23 29 10 21 29 21 29 1
52 l-19 24 -1 -33z"/>
<path d="M2020 2706 c0 -8 -29 -37 -65 -65 -77 -61 -85 -89 -33 -129 15 -12
19 -10 32 22 16 39 59 67 76 50 6 -6 14 -29 18 -52 l7 -41 32 15 c21 11 34 26
38 45 8 36 -2 54 -21 38 -16 -13 -17 -10 -14 41 1 23 -6 45 -20 63 -23 29 -50
36 -50 13z"/>
<path d="M1676 2451 c-3 -4 -1 -13 5 -21 5 -8 9 -23 9 -34 0 -15 -6 -17 -30
-14 -27 4 -29 3 -23 -21 3 -14 12 -35 19 -46 7 -11 27 -56 45 -100 18 -44 41
-90 51 -101 19 -22 10 -43 -12 -29 -19 12 -120 224 -114 240 5 11 -1 15 -21
15 -21 0 -25 -3 -17 -12 5 -7 37 -68 71 -135 35 -68 65 -123 67 -123 10 0 150
21 172 26 35 7 17 21 -38 29 -27 4 -54 12 -59 19 -6 7 -31 72 -55 145 -50 147
-49 152 25 133 29 -7 38 -7 31 0 -13 13 -121 38 -126 29z m28 -93 c2 -7 22
-64 45 -127 40 -112 44 -139 17 -110 -20 20 -107 229 -101 240 9 13 35 11 39
-3z"/>
<path d="M1900 2450 c0 -6 43 -10 110 -10 67 0 110 4 110 10 0 6 -43 10 -110
10 -67 0 -110 -4 -110 -10z"/>
<path d="M2287 2446 c-64 -18 -73 -29 -14 -21 26 4 47 4 47 0 0 -4 -21 -70
-46 -146 -31 -92 -52 -140 -63 -143 -9 -3 -33 -8 -54 -12 -20 -3 -39 -10 -42
-14 -8 -13 53 -28 124 -32 l64 -3 69 133 c67 128 69 132 45 132 -20 0 -24 -4
-20 -19 5 -18 -58 -153 -100 -214 -31 -45 -36 -22 -8 35 40 80 90 196 97 222
5 21 3 22 -26 18 -34 -5 -33 -8 -15 56 7 25 7 25 -58 8z m70 -98 c-3 -13 -24
-68 -46 -122 -37 -89 -58 -123 -69 -111 -2 2 15 60 38 129 35 106 45 126 62
126 16 0 19 -5 15 -22z"/>
<path d="M1914 2415 c-7 -18 12 -45 32 -45 8 0 14 -7 14 -15 0 -11 12 -15 50
-15 37 0 50 4 50 14 0 8 9 17 19 21 21 6 34 31 25 46 -3 5 -46 9 -95 9 -71 0
-91 -3 -95 -15z"/>
<path d="M1980 2261 c0 -32 -4 -81 -10 -110 -13 -72 12 -121 54 -105 20 8 22
26 18 157 l-4 117 -29 0 c-29 0 -29 -1 -29 -59z"/>
<path d="M907 1973 c-4 -3 -7 -100 -7 -215 l0 -208 1095 -2 c602 -2 1100 -1
1105 0 11 4 14 294 4 380 l-7 52 -1092 0 c-600 0 -1095 -3 -1098 -7z m299
-115 c8 -26 -11 -47 -28 -30 -7 7 -18 12 -25 12 -23 0 -14 -36 16 -61 53 -45
64 -86 31 -119 -28 -28 -64 -25 -89 6 -25 32 -26 43 -5 51 11 4 23 -2 33 -16
16 -21 31 -20 31 4 0 6 -16 29 -35 50 -29 31 -35 45 -33 74 2 25 10 39 26 47
31 15 70 6 78 -18z m141 16 c4 -11 -2 -23 -16 -33 -20 -15 -22 -25 -20 -104 2
-93 -1 -103 -26 -94 -12 5 -15 25 -15 102 0 76 -3 95 -14 95 -19 0 -29 17 -22
35 8 22 104 21 113 -1z m61 -80 c2 -49 7 -93 13 -99 19 -19 30 19 27 95 -2 81
4 102 27 93 12 -4 15 -26 15 -104 0 -86 -3 -102 -20 -119 -27 -27 -65 -26 -84
2 -12 17 -16 48 -16 119 0 52 3 99 7 103 19 19 28 -8 31 -90z m199 68 c7 -11
12 -48 13 -98 0 -95 -17 -124 -75 -124 l-35 0 0 118 c0 65 3 122 7 126 12 12
76 -4 90 -22z m131 1 c3 -20 -1 -23 -27 -23 -26 0 -31 -4 -31 -24 0 -18 6 -25
23 -28 29 -4 28 -30 -1 -43 -34 -15 -27 -59 11 -63 19 -2 27 -9 27 -23 0 -18
-6 -20 -52 -17 l-53 3 -3 109 c-3 127 2 138 62 134 34 -2 42 -7 44 -25z m91
-47 l19 -61 1 61 c1 46 5 63 16 68 23 8 26 -9 23 -130 -3 -100 -5 -109 -22
-109 -15 0 -24 15 -40 60 l-21 60 -3 -63 c-3 -53 -6 -63 -20 -60 -15 3 -17 19
-20 117 -3 116 3 136 35 124 7 -3 22 -33 32 -67z m190 65 c17 -11 7 -41 -14
-41 -12 0 -15 -16 -15 -95 0 -77 -3 -97 -15 -102 -9 -3 -18 -3 -22 0 -3 4 -5
49 -4 102 2 90 1 95 -19 95 -19 0 -28 28 -13 43 9 10 86 8 102 -2z m163 -24
c4 -7 8 -22 8 -34 0 -30 -40 -32 -47 -3 -12 44 -27 12 -28 -55 0 -70 17 -99
29 -50 9 35 40 30 44 -7 4 -31 -28 -68 -58 -68 -11 0 -29 9 -40 20 -17 17 -20
33 -20 103 0 83 9 110 40 119 19 6 62 -9 72 -25z m124 7 c24 -23 26 -30 23
-104 -4 -85 -23 -120 -64 -120 -44 0 -56 29 -53 131 3 88 4 94 28 106 34 17
37 17 66 -13z m82 -77 c2 -77 6 -97 17 -97 12 0 15 18 15 94 0 71 3 95 14 99
8 3 17 3 20 0 3 -4 6 -51 6 -106 0 -79 -3 -104 -17 -119 -20 -22 -51 -23 -75
-1 -15 14 -18 32 -18 118 0 56 3 105 7 109 19 19 28 -8 31 -97z m128 95 c6 -4
17 -32 25 -62 l14 -55 3 57 c2 41 7 58 19 62 29 11 34 -9 31 -125 -3 -108 -4
-114 -24 -117 -19 -3 -25 6 -42 55 l-20 58 -1 -57 c-1 -51 -3 -58 -21 -58 -19
0 -20 7 -20 118 0 130 4 145 36 124z m212 -15 c6 -5 12 -22 12 -38 0 -22 -5
-29 -19 -29 -10 0 -21 9 -24 20 -3 11 -10 20 -16 20 -7 0 -11 -27 -11 -75 0
-77 12 -97 30 -49 13 32 34 26 38 -10 7 -57 -57 -87 -98 -46 -16 16 -20 33
-20 95 0 41 5 85 11 99 16 34 61 40 97 13z m70 -106 c2 -113 1 -122 -15 -119
-16 3 -18 17 -21 112 -3 117 1 140 21 134 8 -3 13 -40 15 -127z m64 19 l3 -95
30 -5 c18 -3 30 -11 30 -20 0 -11 -12 -15 -50 -15 l-50 0 -3 114 c-2 85 1 116
10 122 22 14 27 -3 30 -101z"/>
<path d="M1549 1835 c0 -8 0 -134 1 -147 0 -9 5 -7 13 4 11 13 15 94 8 141 -1
8 -21 10 -22 2z"/>
<path d="M2254 1826 c-10 -25 1 -129 14 -134 9 -3 12 16 12 72 0 46 -4 76 -10
76 -6 0 -13 -6 -16 -14z"/>
<path d="M699 1757 c31 -56 60 -110 63 -119 4 -9 -9 -60 -28 -113 -19 -53 -34
-102 -34 -109 0 -9 14 -11 55 -8 30 2 98 1 150 -3 92 -7 97 -8 106 -33 41
-108 119 -221 220 -318 143 -136 302 -232 619 -371 69 -30 130 -59 137 -65 8
-6 21 -5 40 6 15 8 66 31 113 51 400 172 634 333 761 526 53 81 99 168 99 189
0 6 53 10 140 11 77 1 146 2 153 3 17 2 13 25 -24 130 l-33 94 62 110 c34 61
62 113 62 116 0 3 -43 6 -95 6 l-95 0 -2 -187 -3 -188 -107 -3 -107 -3 -12
-37 c-61 -185 -190 -339 -400 -477 -84 -56 -305 -175 -323 -175 -3 0 -37 -15
-78 -33 -146 -67 -120 -67 -279 3 -175 77 -272 125 -324 160 -22 15 -60 40
-85 56 -113 72 -212 165 -283 266 -43 63 -107 195 -107 223 0 12 -19 15 -110
15 l-110 0 0 190 0 190 -99 0 -100 0 58 -103z"/>
<path d="M1144 1453 c12 -51 70 -154 122 -217 101 -123 232 -218 439 -320 168
-82 250 -120 281 -130 23 -7 213 72 367 153 264 138 456 332 512 519 l6 22
-866 0 -867 0 6 -27z m294 -130 c2 -8 -6 -13 -20 -14 -23 0 -23 0 -2 -9 30
-12 38 -28 24 -45 -16 -19 -56 -19 -64 0 -4 10 1 15 15 15 21 0 20 1 -2 20
-24 20 -24 20 -4 35 22 18 46 16 53 -2z m104 -1 c12 -12 6 -63 -7 -62 -5 0
-10 10 -10 22 0 12 -6 23 -12 25 -9 3 -13 -6 -13 -27 0 -37 -23 -37 -28 1 -2
13 -8 29 -13 35 -5 6 -7 13 -4 16 8 7 78 -1 87 -10z m96 1 c2 -8 -5 -13 -17
-13 -14 0 -21 -6 -21 -20 0 -13 7 -20 20 -20 11 0 20 -7 20 -16 0 -11 -8 -14
-27 -12 -39 4 -54 49 -28 78 20 22 46 23 53 3z m85 0 c15 -13 21 -15 24 -5 8
23 23 12 23 -17 0 -20 6 -30 20 -34 11 -3 20 -10 20 -16 0 -14 -43 -14 -57 0
-8 8 -16 7 -31 -2 -16 -10 -26 -10 -46 -1 -30 14 -34 46 -9 74 20 23 31 23 56
1z m230 10 c4 -3 2 -12 -4 -20 -17 -20 -1 -15 24 7 23 22 48 23 54 3 2 -6 -6
-13 -19 -15 -24 -3 -32 -28 -10 -35 6 -3 12 2 12 11 0 9 8 16 20 16 11 0 20 7
20 15 0 16 43 31 59 20 18 -11 12 -25 -11 -26 -16 -1 -18 -3 -7 -6 16 -4 32
-47 21 -58 -10 -9 -51 -5 -58 6 -4 8 -9 8 -17 0 -18 -18 -56 -13 -69 9 -7 11
-17 20 -22 20 -4 0 -3 -6 3 -13 6 -8 8 -17 4 -20 -11 -12 -51 -8 -60 5 -10 18
-3 71 11 80 14 10 41 10 49 1z m249 -5 c9 -7 18 -24 21 -38 l3 -25 12 27 c16
38 33 45 50 20 l14 -21 22 26 c15 17 29 24 39 20 23 -9 21 -27 -2 -27 -23 0
-36 -29 -16 -35 48 -15 48 -16 37 -27 -8 -8 -26 -8 -67 1 -31 7 -61 9 -68 4
-7 -4 -32 -8 -57 -8 -44 0 -45 1 -48 33 -5 52 25 77 60 50z m257 -2 c10 -12
16 -12 42 2 29 16 31 16 48 -4 17 -21 18 -21 29 -3 26 41 73 6 65 -49 -5 -31
-7 -32 -23 -17 -12 11 -20 13 -25 6 -10 -17 -25 -13 -25 6 0 14 -3 13 -16 -5
-18 -26 -46 -29 -64 -7 -12 14 -15 14 -31 -1 -24 -22 -52 -14 -63 18 -16 45
35 88 63 54z m-619 -25 c0 -20 6 -30 20 -34 28 -7 25 -27 -4 -27 -32 0 -45 19
-39 58 6 40 23 42 23 3z m94 -157 c9 -3 16 -13 16 -21 0 -11 -7 -13 -30 -8
-40 9 -38 -6 3 -25 37 -17 45 -41 22 -64 -20 -20 -55 -21 -80 -3 -24 18 -11
41 14 25 20 -12 56 -4 47 11 -3 4 -19 11 -35 14 -36 7 -47 34 -25 58 18 19 40
24 68 13z m240 0 c9 -3 16 -12 16 -20 0 -10 -8 -12 -30 -7 -41 8 -39 -12 3
-23 27 -8 32 -15 32 -39 0 -23 -6 -32 -28 -39 -29 -11 -57 -1 -65 22 -2 8 6
11 25 10 31 -3 45 15 16 21 -43 8 -58 51 -25 70 20 12 34 13 56 5z m-172 -26
c4 -32 45 -37 50 -7 2 12 9 24 16 27 9 3 12 -13 12 -57 0 -60 -16 -84 -27 -41
-3 13 -14 20 -29 20 -17 0 -24 -6 -24 -20 0 -11 -7 -20 -15 -20 -12 0 -15 13
-15 60 0 45 3 60 14 60 8 0 16 -10 18 -22z m-204 -46 c3 -16 -2 -22 -16 -22
-22 0 -32 17 -24 38 7 20 37 9 40 -16z m500 5 c4 -20 -25 -34 -40 -19 -15 15
-1 44 19 40 10 -2 19 -11 21 -21z"/>
<path d="M1680 1290 c0 -15 5 -20 18 -18 9 2 17 10 17 18 0 8 -8 16 -17 18
-13 2 -18 -3 -18 -18z"/>
<path d="M2417 1296 c-7 -16 1 -26 20 -26 7 0 13 9 13 20 0 23 -25 27 -33 6z"/>
<path d="M2505 1300 c-8 -14 3 -30 21 -30 8 0 14 9 14 20 0 21 -24 28 -35 10z"/>
<path d="M2600 1300 c0 -5 5 -10 10 -10 6 0 10 5 10 10 0 6 -4 10 -10 10 -5 0
-10 -4 -10 -10z"/>
<path d="M3058 973 c7 -3 16 -2 19 1 4 3 -2 6 -13 5 -11 0 -14 -3 -6 -6z"/>
<path d="M3000 961 c0 -15 16 -22 35 -15 13 5 14 8 3 15 -18 12 -38 11 -38 0z"/>
<path d="M3091 961 c-9 -6 -10 -11 -2 -15 13 -8 31 1 31 15 0 11 -11 11 -29 0z"/>
<path d="M2973 943 c4 -3 1 -13 -6 -21 -10 -13 -9 -14 3 -10 19 6 26 38 9 38
-7 0 -9 -3 -6 -7z"/>
<path d="M3137 943 c-25 -6 -40 -49 -27 -74 6 -11 29 -31 51 -45 51 -32 46
-49 -14 -48 -26 0 -47 -3 -47 -6 0 -17 28 -30 65 -30 94 0 115 71 38 123 -54
35 -56 57 -7 57 24 0 34 4 32 13 -5 12 -59 19 -91 10z"/>
<path d="M3256 934 c-9 -25 -8 -27 20 -20 l25 7 -3 -91 -3 -90 30 0 31 0 -1
88 c0 81 1 87 20 85 18 -1 34 12 35 30 0 4 -33 7 -74 7 -58 0 -75 -3 -80 -16z"/>
<path d="M3435 845 l0 -105 30 0 30 0 0 105 0 105 -30 0 -30 0 0 -105z"/>
<path d="M3041 931 c-12 -8 -13 -14 -3 -35 6 -14 15 -26 19 -26 20 1 34 19 31
41 -3 26 -24 34 -47 20z"/>
<path d="M2988 899 c-10 -5 -18 -19 -18 -30 0 -13 4 -18 12 -13 8 5 9 2 5 -9
-8 -20 -6 -20 27 -6 24 11 24 13 10 40 -8 16 -16 29 -17 29 -1 0 -10 -5 -19
-11z"/>
<path d="M2930 845 c-17 -21 -8 -28 15 -11 11 8 14 15 8 19 -6 4 -16 0 -23 -8z"/>
<path d="M3070 849 c0 -15 19 -49 28 -49 4 0 13 4 21 9 11 7 9 13 -8 30 -23
23 -41 27 -41 10z"/>
<path d="M3020 822 c-24 -19 -20 -48 6 -38 8 3 11 0 7 -10 -5 -12 -1 -13 20
-3 25 11 25 13 11 40 -17 34 -16 34 -44 11z"/>
<path d="M2945 810 c-3 -6 1 -7 9 -4 18 7 21 14 7 14 -6 0 -13 -4 -16 -10z"/>
<path d="M3160 794 c0 -8 5 -12 10 -9 6 4 8 11 5 16 -9 14 -15 11 -15 -7z"/>
<path d="M2970 775 c-18 -21 -3 -32 16 -13 10 9 12 18 6 22 -5 3 -15 -1 -22
-9z"/>
<path d="M3071 756 c-9 -10 -8 -15 4 -20 10 -4 15 1 15 14 0 24 -4 25 -19 6z"/>
</g>
</svg>
